<svg width="20" height="20" viewBox="0 0 20 20" fill="none" xmlns="http://www.w3.org/2000/svg">
<path d="M16.8751 16.875H3.12506C3.01852 16.8747 2.91383 16.8471 2.82094 16.795C2.72804 16.7428 2.65002 16.6677 2.59429 16.5769C2.53856 16.4861 2.50696 16.3826 2.5025 16.2762C2.49804 16.1697 2.52087 16.0639 2.56881 15.9687C3.33998 14.4144 3.7441 12.7038 3.75006 10.9687V8.75C3.75006 7.0924 4.40854 5.50269 5.58064 4.33058C6.75275 3.15848 8.34246 2.5 10.0001 2.5C11.6577 2.5 13.2474 3.15848 14.4195 4.33058C15.5916 5.50269 16.2501 7.0924 16.2501 8.75V10.9563C16.256 12.6913 16.6601 14.4019 17.4313 15.9563C17.4822 16.0518 17.5074 16.159 17.5044 16.2672C17.5014 16.3755 17.4704 16.4811 17.4143 16.5737C17.3582 16.6663 17.279 16.7428 17.1845 16.7956C17.09 16.8484 16.9833 16.8758 16.8751 16.875V16.875ZM4.09381 15.625H15.9063C15.3103 14.1405 15.0027 12.5559 15.0001 10.9563V8.75C15.0001 7.42392 14.4733 6.15215 13.5356 5.21447C12.5979 4.27678 11.3261 3.75 10.0001 3.75C8.67398 3.75 7.40221 4.27678 6.46453 5.21447C5.52685 6.15215 5.00006 7.42392 5.00006 8.75V10.9563C4.99739 12.5559 4.68982 14.1405 4.09381 15.625V15.625Z" fill="#2E2F30"/>
<path d="M10 19.375C9.1712 19.375 8.37634 19.0458 7.79029 18.4597C7.20424 17.8737 6.875 17.0788 6.875 16.25C6.875 16.0842 6.94085 15.9253 7.05806 15.8081C7.17527 15.6908 7.33424 15.625 7.5 15.625C7.66576 15.625 7.82473 15.6908 7.94194 15.8081C8.05915 15.9253 8.125 16.0842 8.125 16.25C8.12544 16.7471 8.32327 17.2237 8.675 17.575C9.03267 17.9144 9.50694 18.1036 10 18.1036C10.4931 18.1036 10.9673 17.9144 11.325 17.575C11.3833 17.5167 11.4525 17.4705 11.5286 17.439C11.6047 17.4074 11.6863 17.3912 11.7687 17.3912C11.8512 17.3912 11.9328 17.4074 12.0089 17.439C12.085 17.4705 12.1542 17.5167 12.2125 17.575C12.2708 17.6333 12.317 17.7025 12.3485 17.7786C12.3801 17.8547 12.3963 17.9363 12.3963 18.0187C12.3963 18.1012 12.3801 18.1828 12.3485 18.2589C12.317 18.335 12.2708 18.4042 12.2125 18.4625C11.9218 18.7525 11.5767 18.9824 11.1971 19.1389C10.8174 19.2955 10.4107 19.3757 10 19.375Z" fill="#2E2F30"/>
<path d="M10 3.75C9.83424 3.75 9.67527 3.68415 9.55806 3.56694C9.44085 3.44973 9.375 3.29076 9.375 3.125V1.25C9.375 1.08424 9.44085 0.925268 9.55806 0.808058C9.67527 0.690848 9.83424 0.625 10 0.625C10.1658 0.625 10.3247 0.690848 10.4419 0.808058C10.5592 0.925268 10.625 1.08424 10.625 1.25V3.125C10.625 3.29076 10.5592 3.44973 10.4419 3.56694C10.3247 3.68415 10.1658 3.75 10 3.75Z" fill="#2E2F30"/>
<path d="M16.25 3.125C16.0028 3.125 15.7611 3.05169 15.5555 2.91434C15.35 2.77699 15.1898 2.58176 15.0952 2.35335C15.0005 2.12495 14.9758 1.87361 15.024 1.63114C15.0723 1.38866 15.1913 1.16593 15.3661 0.991117C15.5409 0.816301 15.7637 0.69725 16.0061 0.649019C16.2486 0.600787 16.4999 0.625542 16.7284 0.720151C16.9568 0.814761 17.152 0.974976 17.2893 1.18054C17.4267 1.3861 17.5 1.62777 17.5 1.875C17.5 2.20652 17.3683 2.52446 17.1339 2.75888C16.8995 2.9933 16.5815 3.125 16.25 3.125Z" fill="#2E2F30"/>
</svg>
