<svg width="32" height="34" viewBox="0 0 32 34" fill="none" xmlns="http://www.w3.org/2000/svg">
<g filter="url(#filter0_d_2_52)">
<path d="M27.4326 12.7205L17.9951 5.05172C16.8388 4.11297 15.1613 4.11297 14.0051 5.05172L4.56883 12.7192C4.23758 12.988 4.04883 13.3855 4.04883 13.8105V28.2392C4.04883 29.0142 4.68008 29.6517 5.45508 29.6517H11.7826C12.5576 29.6517 13.1888 29.0142 13.1888 28.2392V19.1067H18.8126V28.2392C18.8126 29.0142 19.4438 29.6517 20.2188 29.6517H26.5463C27.3213 29.6517 27.9526 29.0142 27.9526 28.2392V13.8105C27.9513 13.3855 27.7626 12.988 27.4326 12.7205ZM26.5451 28.2467H20.2176V19.1005C20.2176 18.3255 19.5863 17.7017 18.8113 17.7017H13.1876C12.4126 17.7017 11.7813 18.3255 11.7813 19.1005V28.2467H5.45508V13.8105L14.8926 6.14297C15.5338 5.62047 16.4676 5.62172 17.1088 6.14297L26.5463 13.8105V28.2467H26.5451Z" fill="#FFDF6E"/>
</g>
<defs>
<filter id="filter0_d_2_52" x="-3" y="-2" width="38" height="38" filterUnits="userSpaceOnUse" color-interpolation-filters="sRGB">
<feFlood flood-opacity="0" result="BackgroundImageFix"/>
<feColorMatrix in="SourceAlpha" type="matrix" values="0 0 0 0 0 0 0 0 0 0 0 0 0 0 0 0 0 0 127 0" result="hardAlpha"/>
<feOffset/>
<feGaussianBlur stdDeviation="2"/>
<feComposite in2="hardAlpha" operator="out"/>
<feColorMatrix type="matrix" values="0 0 0 0 0.975 0 0 0 0 0.954688 0 0 0 0 0.954688 0 0 0 1 0"/>
<feBlend mode="normal" in2="BackgroundImageFix" result="effect1_dropShadow_2_52"/>
<feBlend mode="normal" in="SourceGraphic" in2="effect1_dropShadow_2_52" result="shape"/>
</filter>
</defs>
</svg>
