<svg width="28" height="23" viewBox="0 0 28 23" fill="none" xmlns="http://www.w3.org/2000/svg">
<path fill-rule="evenodd" clip-rule="evenodd" d="M3 0C1.34315 0 0 1.34315 0 3V7.02746C2.24998 7.27619 4 9.18372 4 11.5C4 13.8163 2.24998 15.7238 0 15.9725V20C0 21.6569 1.34315 23 3 23H10H25C26.6569 23 28 21.6569 28 20V15.9725C27.8358 15.9907 27.669 16 27.5 16C25.0147 16 23 13.9853 23 11.5C23 9.01472 25.0147 7 27.5 7C27.669 7 27.8358 7.00932 28 7.02746V3C28 1.34315 26.6569 0 25 0H10H3ZM10 0C10.5523 0 11 0.447715 11 1V4C11 4.55228 10.5523 5 10 5C9.44771 5 9 4.55228 9 4V1C9 0.447715 9.44771 0 10 0ZM10 23C9.44771 23 9 22.5523 9 22V19C9 18.4477 9.44771 18 10 18C10.5523 18 11 18.4477 11 19V22C11 22.5523 10.5523 23 10 23ZM9 10C9 9.44771 9.44771 9 10 9C10.5523 9 11 9.44771 11 10V13C11 13.5523 10.5523 14 10 14C9.44771 14 9 13.5523 9 13V10Z" fill="#282929"/>
</svg>
